HIERARCHY
ROOT hip
{
  OFFSET 0 0 0
  CHANNELS 6 Xposition Yposition Zposition Zrotation Yrotation Xrotation
  JOINT abdomen
  {
    OFFSET 0 20.6881 -0.73152
    CHANNELS 3 Zrotation Xrotation Yrotation
    JOINT chest
    {
      OFFSET 0 11.7043 -0.48768
      CHANNELS 3 Zrotation Xrotation Yrotation
      JOINT neck
      {
        OFFSET 0 22.1894 -2.19456
        CHANNELS 3 Zrotation Xrotation Yrotation
        JOINT head
        {
          OFFSET -0.24384 7.07133 1.2192
          CHANNELS 3 Zrotation Xrotation Yrotation
          JOINT leftEye
          {
            OFFSET 4.14528 8.04674 8.04672
            CHANNELS 3 Zrotation Xrotation Yrotation
            End Site
            {
              OFFSET 1 0 0
            }
          }
          JOINT rightEye
          {
            OFFSET -3.6576 8.04674 8.04672
            CHANNELS 3 Zrotation Xrotation Yrotation
            End Site
            {
              OFFSET 1 0 0
            }
          }
        }
      }
      JOINT rCollar
      {
        OFFSET -2.68224 19.2634 -4.8768
        CHANNELS 3 Zrotation Xrotation Yrotation
        JOINT rShldr
        {
          OFFSET -8.77824 -1.95073 1.46304
          CHANNELS 3 Zrotation Xrotation Yrotation
          JOINT rForeArm
          {
            OFFSET -28.1742 -1.7115 0.48768
            CHANNELS 3 Zrotation Xrotation Yrotation
            JOINT rHand
            {
              OFFSET -22.5879 0.773209 7.07136
              CHANNELS 3 Zrotation Xrotation Yrotation
              JOINT rThumb1
              {
                OFFSET -1.2192 -0.487915 3.41376
                CHANNELS 3 Zrotation Xrotation Yrotation
                JOINT rThumb2
                {
                  OFFSET -3.37035 -0.52449 3.41376
                  CHANNELS 3 Zrotation Xrotation Yrotation
                  End Site
                  {
                    OFFSET -1.78271 -1.18214 1.43049
                  }
                }
              }
              JOINT rIndex1
              {
                OFFSET -7.75947 0.938293 5.60832
                CHANNELS 3 Zrotation Xrotation Yrotation
                JOINT rIndex2
                {
                  OFFSET -2.54057 -0.884171 1.56538
                  CHANNELS 3 Zrotation Xrotation Yrotation
                  End Site
                  {
                    OFFSET -1.62519 -0.234802 1.16502
                  }
                }
              }
              JOINT rMid1
              {
                OFFSET -8.24714 1.18213 3.41376
                CHANNELS 3 Zrotation Xrotation Yrotation
                JOINT rMid2
                {
                  OFFSET -3.10165 -0.590103 1.0647
                  CHANNELS 3 Zrotation Xrotation Yrotation
                  End Site
                  {
                    OFFSET -2.48547 -0.328903 0.83742
                  }
                }
              }
              JOINT rRing1
              {
                OFFSET -8.82822 0.546677 1.51678
                CHANNELS 3 Zrotation Xrotation Yrotation
                JOINT rRing2
                {
                  OFFSET -2.60934 -0.819778 -0.0198488
                  CHANNELS 3 Zrotation Xrotation Yrotation
                  End Site
                  {
                    OFFSET -2.33842 -0.294052 0.168128
                  }
                }
              }
              JOINT rPinky1
              {
                OFFSET -8.27202 -0.0477905 -0.4584
                CHANNELS 3 Zrotation Xrotation Yrotation
                JOINT rPinky2
                {
                  OFFSET -1.82734 -0.647385 -0.700984
                  CHANNELS 3 Zrotation Xrotation Yrotation
                  End Site
                  {
                    OFFSET -1.69225 -0.51767 -0.607171
                  }
                }
              }
            }
          }
        }
      }
      JOINT lCollar
      {
        OFFSET 2.68224 19.2634 -4.8768
        CHANNELS 3 Zrotation Xrotation Yrotation
        JOINT lShldr
        {
          OFFSET 8.77824 -1.95073 1.46304
          CHANNELS 3 Zrotation Xrotation Yrotation
          JOINT lForeArm
          {
            OFFSET 28.1742 -1.7115 0.48768
            CHANNELS 3 Zrotation Xrotation Yrotation
            JOINT lHand
            {
              OFFSET 22.5879 0.773209 7.07136
              CHANNELS 3 Zrotation Xrotation Yrotation
              JOINT lThumb1
              {
                OFFSET 1.2192 -0.487915 3.41376
                CHANNELS 3 Zrotation Xrotation Yrotation
                JOINT lThumb2
                {
                  OFFSET 3.37035 -0.52449 3.41376
                  CHANNELS 3 Zrotation Xrotation Yrotation
                  End Site
                  {
                    OFFSET 1.78271 -1.18214 1.43049
                  }
                }
              }
              JOINT lIndex1
              {
                OFFSET 7.75947 0.938293 5.60832
                CHANNELS 3 Zrotation Xrotation Yrotation
                JOINT lIndex2
                {
                  OFFSET 2.54057 -0.884171 1.56538
                  CHANNELS 3 Zrotation Xrotation Yrotation
                  End Site
                  {
                    OFFSET 1.62519 -0.234802 1.16502
                  }
                }
              }
              JOINT lMid1
              {
                OFFSET 8.24714 1.18213 3.41376
                CHANNELS 3 Zrotation Xrotation Yrotation
                JOINT lMid2
                {
                  OFFSET 3.10165 -0.590103 1.0647
                  CHANNELS 3 Zrotation Xrotation Yrotation
                  End Site
                  {
                    OFFSET 2.48547 -0.328903 0.83742
                  }
                }
              }
              JOINT lRing1
              {
                OFFSET 8.82822 0.546677 1.51678
                CHANNELS 3 Zrotation Xrotation Yrotation
                JOINT lRing2
                {
                  OFFSET 2.60934 -0.819778 -0.0198488
                  CHANNELS 3 Zrotation Xrotation Yrotation
                  End Site
                  {
                    OFFSET 2.33842 -0.294052 0.168128
                  }
                }
              }
              JOINT lPinky1
              {
                OFFSET 8.27202 -0.0477905 -0.4584
                CHANNELS 3 Zrotation Xrotation Yrotation
                JOINT lPinky2
                {
                  OFFSET 1.82734 -0.647385 -0.700984
                  CHANNELS 3 Zrotation Xrotation Yrotation
                  End Site
                  {
                    OFFSET 1.69225 -0.51767 -0.607171
                  }
                }
              }
            }
          }
        }
      }
    }
  }
  JOINT rButtock
  {
    OFFSET -8.77824 4.35084 1.2192
    CHANNELS 3 Zrotation Xrotation Yrotation
    JOINT rThigh
    {
      OFFSET 0 -1.70687 -2.19456
      CHANNELS 3 Zrotation Xrotation Yrotation
      JOINT rShin
      {
        OFFSET 0 -36.8199 0.73152
        CHANNELS 3 Zrotation Xrotation Yrotation
        JOINT rFoot
        {
          OFFSET 0.73152 -45.1104 -5.12064
          CHANNELS 3 Zrotation Xrotation Yrotation
          End Site
          {
            OFFSET -1.1221 -3.69964 12.103
          }
        }
      }
    }
  }
  JOINT lButtock
  {
    OFFSET 8.77824 4.35084 1.2192
    CHANNELS 3 Zrotation Xrotation Yrotation
    JOINT lThigh
    {
      OFFSET 0 -1.70687 -2.19456
      CHANNELS 3 Zrotation Xrotation Yrotation
      JOINT lShin
      {
        OFFSET 0 -36.8199 0.73152
        CHANNELS 3 Zrotation Xrotation Yrotation
        JOINT lFoot
        {
          OFFSET -0.73152 -45.1104 -5.12064
          CHANNELS 3 Zrotation Xrotation Yrotation
          End Site
          {
            OFFSET 1.1221 -3.69964 12.103
          }
        }
      }
    }
  }
}
MOTION
Frames:	4
Frame Time:	0.03333
-0.017188734670345745 28.98782485643811 0.6792987584202924 12.037397384643555 68.51300048828125 26.09709930419922 -4.788139343261719 19.64739990234375 -7.013279914855957 7.2883782386779785 -14.214999198913574 -1.156309962272644 -9.439388275146484 20.833297729492188 -16.508800506591797 19.11440086364746 -34.66759490966797 -27.84819984436035 -0.0 0.0 -0.0 -0.0 0.0 -0.0 -3.1805545068312735e-14 1.6856939563832107e-13 -5.724998112296292e-14 40.245296478271484 2.6284799575805664 14.85309886932373 -27.74629783630371 -41.592899322509766 86.81909942626953 -0.7278978824615479 -23.48029899597168 -3.500269651412964 -5.257265733860095e-10 3.4455263642207967e-10 -1.2226815115923273e-09 -8.877213963920383e-10 6.264738172667705e-10 -2.1238915071108977e-09 -5.257234092503893e-10 3.4455902020447127e-10 -1.2226878398635677e-09 7.7309088706970215 5.474880218505859 0.41731396317481995 -5.257297375216297e-10 3.4455582831327547e-10 -1.2226815115923273e-09 2.9055399894714355 0.9651829600334167 0.10290198773145676 -5.257201896036179e-10 3.4455582831327547e-10 -1.2226815115923273e-09 10.27859878540039 0.73180091381073 0.025912299752235413 -5.257329571684011e-10 3.4455902020447127e-10 -1.2226687440275441e-09 2.2216696739196777 -0.7334870100021362 -0.2089199721813202 -3.1805545068312735e-14 1.6856939563832107e-13 -5.724998112296292e-14 -9.330799102783203 56.002201080322266 -72.260498046875 27.33049774169922 -43.06399917602539 -89.60909271240234 0.3971898853778839 -17.625497817993164 2.559279680252075 1.9977380860680682e-10 -1.5183012624930825e-09 1.7660346796066761e-10 3.4028435624833264e-10 -2.6438708999876326e-09 3.120378400112145e-10 1.9977380860680682e-10 -1.5183108104110943e-09 1.766098239874836e-10 -7.7309088706970215 5.474880218505859 -0.41731396317481995 1.9977063059339883e-10 -1.518320358329106e-09 1.7659711193385164e-10 -2.9055399894714355 0.9651829600334167 -0.10290198773145676 1.9977063059339883e-10 -1.5183012624930825e-09 1.7660346796066761e-10 -10.27859878540039 0.73180091381073 -0.025912299752235413 1.997833565248186e-10 -1.5183012624930825e-09 1.7659711193385164e-10 -2.2216696739196777 -0.7334870100021362 0.2089199721813202 -0.0 0.0 -0.0 -91.8416976928711 -60.643402099609375 -75.77230072021484 -159.06399536132812 87.16861724853516 160.42098999023438 -3.754849433898926 -13.982799530029297 -11.221700668334961 -0.0 0.0 -0.0 59.78539276123047 -41.7598991394043 45.2642936706543 2.569739580154419 76.97089385986328 -5.198029518127441 3.0969700813293457 -14.241700172424316 12.121199607849121
-0.001718874801055897 29.626672940076915 1.435889538314036 11.475099563598633 67.22699737548828 25.874500274658203 -4.831388473510742 19.5143985748291 -6.4774699211120605 6.884549617767334 -14.09179973602295 -1.0564099550247192 -9.720488548278809 20.766700744628906 -16.34800148010254 19.051799774169922 -34.99669647216797 -27.539499282836914 -0.0 0.0 -0.0 -0.0 0.0 -0.0 -2.639860172907321e-13 4.2301375618482295e-13 2.035554884372015e-13 39.88079833984375 3.4182097911834717 16.597497940063477 -27.87599754333496 -41.03010177612305 85.78269958496094 -0.7011529803276062 -23.077499389648438 -3.4329898357391357 -7.668094492707667e-10 9.025236669124581e-10 -2.119661557387076e-09 -1.292230655813853e-09 1.600480525887349e-09 -3.6709006945301326e-09 -7.667966817059835e-10 9.025427627484817e-10 -2.1196806532230994e-09 7.7309088706970215 5.474880218505859 0.41731396317481995 -7.668126134063868e-10 9.025300506948497e-10 -2.119661557387076e-09 2.9055399894714355 0.9651829600334167 0.10290198773145676 -7.668062296239953e-10 9.025332148304699e-10 -2.119661557387076e-09 10.27859878540039 0.73180091381073 0.025912299752235413 -7.668094492707667e-10 9.025332148304699e-10 -2.11964867879999e-09 2.2216696739196777 -0.7334870100021362 -0.2089199721813202 -2.608054831126916e-13 4.2301375618482295e-13 2.035554884372015e-13 -13.33899974822998 56.8533935546875 -67.39179992675781 27.228199005126953 -43.37419891357422 -90.21149444580078 0.4077189862728119 -17.851398468017578 2.5942695140838623 -1.1075008965466537e-10 -2.03166816703515e-09 5.032082528444448e-10 -2.0682509871416954e-10 -3.5077603044442185e-09 8.76210937139632e-10 -1.1075008965466537e-10 -2.0316810456222356e-09 5.032209648980768e-10 -7.7309088706970215 5.474880218505859 -0.41731396317481995 -1.1075326766807336e-10 -2.0316905935402474e-09 5.032018690620532e-10 -2.9055399894714355 0.9651829600334167 -0.10290198773145676 -1.1075645262037526e-10 -2.0316810456222356e-09 5.032082528444448e-10 -10.27859878540039 0.73180091381073 -0.025912299752235413 -1.1074690470236348e-10 -2.0316810456222356e-09 5.031955407908129e-10 -2.2216696739196777 -0.7334870100021362 0.2089199721813202 -0.0 0.0 -0.0 -89.45079803466797 -61.54429626464844 -74.74749755859375 -148.44297790527344 88.09391021728516 149.760986328125 -4.293059825897217 -13.825499534606934 -12.427899360656738 -0.0 0.0 -0.0 56.665794372558594 -40.13629150390625 42.095001220703125 1.8642799854278564 73.64119720458984 -4.451769828796387 3.036749839782715 -12.700899124145508 12.91510009765625
0.008307886256215796 30.367967031076738 2.2709755201922106 11.131401062011719 65.72419738769531 25.751697540283203 -5.178730010986328 19.402799606323242 -5.823089599609375 6.337069034576416 -13.979599952697754 -0.9546579718589783 -9.94861125946045 20.73609733581543 -16.16269874572754 19.17670249938965 -35.18910217285156 -27.13499641418457 -0.0 0.0 -0.0 -0.0 0.0 -0.0 -3.466804480208724e-13 4.325554129290532e-13 3.3077766871045244e-13 39.766395568847656 4.304659843444824 18.477596282958984 -27.984092712402344 -40.4994010925293 84.81959533691406 -0.6678200364112854 -22.56189727783203 -3.347479820251465 -7.45919548350571e-10 1.3467708059877737e-09 -2.433983015137642e-09 -1.255428427882066e-09 2.3639694646249154e-09 -4.20751744556469e-09 -7.459036166501676e-10 1.3467899018237972e-09 -2.4340083282226033e-09 7.7309088706970215 5.474880218505859 0.41731396317481995 -7.459227124861911e-10 1.3467803539057854e-09 -2.433983015137642e-09 2.9055399894714355 0.9651829600334167 0.10290198773145676 -7.459131645681794e-10 1.3467803539057854e-09 -2.433983015137642e-09 10.27859878540039 0.73180091381073 0.025912299752235413 -7.45919548350571e-10 1.3467803539057854e-09 -2.433970136550556e-09 2.2216696739196777 -0.7334870100021362 -0.2089199721813202 -3.466804480208724e-13 4.325554129290532e-13 3.3077766871045244e-13 -18.10429573059082 57.73009490966797 -61.59009552001953 27.128793716430664 -43.660797119140625 -90.77439880371094 0.4312109351158142 -18.347599029541016 2.6713695526123047 -1.8794214795558872e-10 -5.928410651279137e-09 1.3749728022816043e-09 -3.5369357442860405e-10 -1.0235301495242766e-08 2.3824007211459275e-09 -1.8794214795558872e-10 -5.928419977152544e-09 1.374991898117628e-09 -7.7309088706970215 5.474880218505859 -0.41731396317481995 -1.879453259689967e-10 -5.928419977152544e-09 1.3749728022816043e-09 -2.9055399894714355 0.9651829600334167 -0.10290198773145676 -1.879485039824047e-10 -5.928419977152544e-09 1.3749728022816043e-09 -10.27859878540039 0.73180091381073 -0.025912299752235413 -1.8793896994218073e-10 -5.928419977152544e-09 1.3749600347168212e-09 -2.2216696739196777 -0.7334870100021362 0.2089199721813202 -0.0 0.0 -0.0 -86.27159881591797 -62.55119705200195 -72.81749725341797 -106.09099578857422 88.98123931884766 107.3429946899414 -4.536649703979492 -13.653899192810059 -12.930299758911133 -0.0 0.0 -0.0 52.503292083740234 -38.426902770996094 37.41890335083008 1.3437001705169678 69.84939575195312 -3.8900299072265625 2.9738900661468506 -10.955099105834961 14.128000259399414
0.030080283171815075 31.164206578854728 3.1780822716910255 10.884500503540039 64.19898986816406 25.674896240234375 -5.830090045928955 19.311500549316406 -5.050089359283447 5.645969867706299 -13.878399848937988 -0.8510379791259766 -10.124000549316406 20.741500854492188 -15.952899932861328 19.486499786376953 -35.242897033691406 -26.63519859313965 -0.0 0.0 -0.0 -0.0 0.0 -0.0 -2.894304533453823e-13 1.9401383169297126e-13 3.2441654614426274e-13 39.88529586791992 5.278379917144775 20.497299194335938 -28.075801849365234 -40.00379943847656 83.92219543457031 -0.6289738416671753 -21.933500289916992 -3.2442996501922607 -4.630537620009534e-10 1.6772908617568305e-09 -2.1656396675950873e-09 -7.773402477262437e-10 2.916959784826645e-09 -3.7337422043037805e-09 -4.630410221917458e-10 1.6773004096748423e-09 -2.165658541386506e-09 7.7309088706970215 5.474880218505859 0.41731396317481995 -4.6305692613657357e-10 1.6772908617568305e-09 -2.1656396675950873e-09 2.9055399894714355 0.9651829600334167 0.10290198773145676 -4.630473782185618e-10 1.6772908617568305e-09 -2.1656396675950873e-09 10.27859878540039 0.73180091381073 0.025912299752235413 -4.6305692613657357e-10 1.6772908617568305e-09 -2.1656267890080017e-09 2.2216696739196777 -0.7334870100021362 -0.2089199721813202 -2.894304533453823e-13 1.9401383169297126e-13 3.2441654614426274e-13 -23.720298767089844 58.48729705810547 -54.72309875488281 27.033798217773438 -43.92539596557617 -91.29499816894531 0.46998298168182373 -19.11400032043457 2.7916598320007324 -3.1799184813108283e-11 -1.3208499183292588e-08 2.7918971579055096e-09 -1.0032105007828918e-10 -2.2826499801453792e-08 4.830600808247709e-09 -3.180236282651627e-11 -1.3208499183292588e-08 2.791922470990471e-09 -7.7309088706970215 5.474880218505859 -0.41731396317481995 -3.180236282651627e-11 -1.3208499183292588e-08 2.7918971579055096e-09 -2.9055399894714355 0.9651829600334167 -0.10290198773145676 -3.1805544309371214e-11 -1.3208499183292588e-08 2.7918971579055096e-09 -10.27859878540039 0.73180091381073 -0.025912299752235413 -3.1799184813108283e-11 -1.3208499183292588e-08 2.7918971579055096e-09 -2.2216696739196777 -0.7334870100021362 0.2089199721813202 -0.0 0.0 -0.0 -82.18069458007812 -63.61660385131836 -69.8427963256836 -34.77809524536133 88.31867218017578 35.93729782104492 -4.49083948135376 -13.471199035644531 -12.730399131774902 -0.0 0.0 -0.0 47.57029724121094 -36.307899475097656 31.346099853515625 0.9555867314338684 65.59609985351562 -3.4622597694396973 2.8578402996063232 -9.013189315795898 15.757298469543457
